<svg width="0" height="0" class="hidden">
  <symbol version="1.0" xmlns="http://www.w3.org/2000/svg" preserveAspectRatio="xMidYMid meet" viewBox="0 0 676.000000 369.000000" id="logo">
    <g transform="translate(0.000000,369.000000) scale(0.100000,-0.100000)" fill="#FFFFFF" stroke="none">
      <path d="M2939 3558 c-24 -40 -62 -107 -86 -148 -24 -41 -48 -82 -53 -90 -5
-8 -40 -69 -78 -135 -38 -66 -147 -255 -242 -420 -95 -165 -187 -325 -205
-355 -76 -132 -507 -877 -637 -1103 -59 -103 -108 -190 -108 -192 0 -3 27 -5
59 -5 l60 0 33 60 c18 33 37 60 41 60 5 0 21 -8 35 -19 15 -10 50 -30 78 -44
27 -14 56 -33 63 -41 12 -14 79 -16 612 -16 330 0 599 3 599 8 0 4 -12 61 -26
127 -47 225 -127 418 -230 559 -31 42 -57 76 -59 76 -2 0 17 -35 42 -77 52
-89 115 -228 144 -323 41 -131 72 -320 53 -320 -3 0 -34 7 -68 16 -257 66
-382 281 -361 620 8 120 -3 202 -36 267 -11 20 -17 37 -13 37 25 0 260 -53
308 -70 203 -70 331 -208 359 -390 14 -91 -2 -228 -39 -335 -21 -60 -25 -86
-19 -122 10 -69 13 -73 55 -73 34 0 44 7 101 68 264 281 408 498 574 867 42
93 136 405 135 447 -1 7 -12 -18 -25 -57 -102 -286 -274 -607 -449 -835 -69
-91 -228 -271 -233 -266 -2 2 3 44 11 92 20 112 20 156 0 252 -26 132 -81 228
-174 310 l-49 43 28 78 c71 195 202 340 526 583 77 58 164 127 194 154 64 57
141 158 141 184 0 21 22 7 -395 248 -176 101 -323 186 -327 188 -3 2 -23 -26
-44 -63 -53 -97 -52 -96 -83 -75 -14 10 -56 35 -93 56 -38 20 -68 41 -68 45 0
5 18 40 40 77 22 38 40 72 40 76 0 7 -72 48 -84 48 -3 0 -24 -33 -47 -72z
m134 -262 c37 -20 67 -43 67 -50 0 -6 -13 -32 -28 -57 -16 -24 -44 -72 -62
-107 -25 -44 -39 -61 -50 -57 -38 15 -180 101 -180 110 0 6 11 28 24 50 14 22
43 73 66 113 l41 73 27 -19 c15 -10 57 -35 95 -56z m-244 -264 c25 -16 67 -41
94 -56 26 -15 47 -29 47 -32 0 -2 -11 -21 -23 -42 -13 -20 -43 -70 -66 -109
-23 -40 -46 -73 -52 -73 -8 0 -131 68 -177 98 -9 6 -3 25 26 78 75 132 94 164
99 164 4 0 27 -13 52 -28z m-166 -312 c26 -16 65 -39 87 -50 22 -11 40 -24 40
-28 0 -7 -84 -160 -116 -210 l-15 -22 -42 21 c-23 12 -67 37 -98 56 l-57 34
65 115 c36 63 71 114 77 114 7 0 33 -13 59 -30z m-110 -343 l67 -40 -21 -36
c-12 -20 -42 -71 -67 -113 -24 -43 -49 -78 -55 -78 -12 0 -187 101 -187 108 0
5 7 17 89 160 l42 72 32 -16 c18 -9 62 -35 100 -57z m-203 -288 c49 -29 90
-55 90 -58 0 -3 -11 -24 -24 -46 -13 -22 -39 -67 -56 -100 -51 -95 -44 -94
-149 -34 -51 29 -94 55 -96 59 -2 3 13 35 34 71 21 35 50 85 65 112 15 26 31
47 36 47 5 0 50 -23 100 -51z m-173 -308 l92 -53 -28 -46 c-15 -26 -47 -79
-70 -118 l-42 -72 -87 50 c-48 27 -91 54 -96 59 -12 10 4 41 111 217 8 12 17
21 21 19 4 -2 48 -27 99 -56z m-182 -302 c50 -28 91 -52 93 -54 4 -3 -129
-235 -135 -235 -4 0 -111 61 -171 97 l-23 14 37 66 c53 97 95 163 103 163 4 0
47 -23 96 -51z"></path>
      <path d="M4176 2937 c4 -6 22 -34 40 -62 90 -142 163 -345 190 -525 46 -315
-37 -634 -221 -848 -144 -168 -356 -281 -599 -319 -89 -15 -104 -20 -124 -45
l-24 -28 379 0 378 1 -40 24 c-22 14 -44 26 -48 28 -5 1 4 25 21 52 16 28 47
80 68 118 22 37 44 66 49 65 23 -6 185 -102 185 -110 0 -5 -20 -44 -45 -87
-25 -43 -45 -81 -45 -84 0 -4 26 -7 58 -7 52 0 58 3 73 28 8 15 60 104 114
197 54 94 115 199 135 235 20 36 54 94 75 130 21 36 55 94 75 130 20 36 88
153 150 260 62 107 124 214 137 236 l23 42 -42 25 -43 26 -17 -22 c-10 -12
-30 -46 -45 -74 -16 -29 -32 -53 -38 -53 -7 0 -178 93 -194 106 -2 2 7 21 21
42 14 20 35 56 46 78 l21 41 -87 50 c-48 27 -168 96 -267 153 -99 56 -196 113
-215 125 -63 41 -151 85 -144 72z m676 -668 c119 -66 115 -60 85 -111 -14 -24
-42 -73 -61 -110 -20 -36 -40 -69 -45 -72 -9 -6 -187 89 -196 104 -2 3 13 35
34 71 21 35 50 85 65 112 15 26 31 47 36 47 6 0 43 -18 82 -41z m-158 -315
l95 -55 -28 -47 c-15 -26 -47 -80 -70 -119 l-43 -73 -27 19 c-14 10 -56 35
-93 55 -38 21 -68 42 -68 47 0 5 17 37 38 72 20 34 48 83 62 110 14 26 28 47
32 47 4 0 50 -25 102 -56z m-129 -332 c22 -14 41 -26 43 -27 3 -2 -116 -214
-128 -228 -6 -7 -170 80 -192 102 -7 6 15 48 108 208 l19 32 55 -31 c30 -18
73 -43 95 -56z"></path>
      <path d="M1722 789 c-100 -19 -208 -106 -258 -206 -26 -52 -29 -68 -29 -158 0
-90 3 -105 29 -154 39 -75 108 -146 175 -178 51 -26 65 -28 171 -28 96 0 123
4 161 22 65 30 150 116 184 188 25 52 29 72 29 150 1 77 -3 98 -26 147 -78
168 -250 254 -436 217z m157 -55 c38 -11 66 -28 98 -61 55 -58 78 -102 93
-182 45 -248 -163 -455 -363 -361 -60 29 -121 97 -144 163 -24 70 -24 195 1
265 26 76 96 148 166 172 68 24 83 24 149 4z"></path>
      <path d="M2600 784 c-66 -18 -117 -52 -172 -113 -69 -78 -83 -119 -83 -246 0
-100 3 -115 28 -166 31 -63 102 -135 168 -171 38 -20 58 -23 154 -23 100 0
114 2 160 27 75 40 107 70 100 91 -9 23 -20 22 -58 -7 -18 -14 -56 -34 -85
-45 -212 -84 -397 99 -361 357 33 235 254 333 426 188 l29 -25 27 34 26 33
-62 31 c-101 51 -196 62 -297 35z"></path>
      <path d="M90 425 l0 -365 50 0 50 0 0 155 0 155 103 0 c56 0 117 4 136 10 152
43 200 234 87 346 -55 55 -91 64 -273 64 l-153 0 0 -365z m301 292 c52 -27 79
-73 79 -133 0 -65 -18 -102 -65 -134 -40 -28 -51 -30 -129 -30 l-86 0 0 160 0
160 78 0 c63 0 88 -5 123 -23z"></path>
      <path d="M780 425 l0 -365 50 0 50 0 0 341 0 341 94 -4 c81 -3 99 -7 134 -30
82 -55 95 -175 25 -243 -43 -42 -85 -55 -177 -55 l-69 0 54 -60 c30 -32 101
-111 159 -174 l105 -115 69 0 68 -1 -70 78 c-39 42 -102 111 -141 152 -38 41
-67 78 -64 83 2 4 15 7 29 7 58 0 139 54 170 112 19 36 18 132 -2 174 -9 19
-33 48 -54 64 -64 51 -106 60 -276 60 l-154 0 0 -365z"></path>
      <path d="M3180 425 l0 -365 50 0 50 0 0 365 0 365 -50 0 -50 0 0 -365z"></path>
      <path d="M3540 425 l0 -365 33 0 32 0 -3 272 -3 273 37 -40 c49 -52 426 -473
440 -491 6 -8 19 -14 28 -14 14 0 16 33 16 365 l0 365 -31 0 -32 0 5 -271 5
-270 -23 22 c-13 12 -124 134 -246 271 -132 146 -230 248 -240 248 -17 0 -18
-23 -18 -365z"></path>
      <path d="M4370 425 l0 -365 225 0 225 0 0 31 0 31 -172 -3 -173 -3 -3 142 -3
142 171 0 170 0 0 30 0 30 -170 0 -171 0 3 138 3 137 173 -3 172 -3 0 30 0 31
-225 0 -225 0 0 -365z"></path>
      <path d="M5205 778 c-24 -66 -235 -705 -235 -710 0 -5 15 -8 33 -8 l33 0 43
138 c117 374 124 394 132 380 5 -7 21 -44 35 -83 66 -175 94 -247 128 -338 21
-53 43 -97 50 -97 14 0 36 53 116 275 28 77 60 166 72 198 19 54 38 75 38 42
0 -8 15 -61 34 -117 18 -57 54 -169 80 -250 l47 -148 55 0 56 0 -7 28 c-3 15
-56 178 -118 362 -126 378 -130 384 -172 275 -30 -76 -78 -207 -115 -310 -16
-44 -36 -98 -46 -120 l-17 -40 -34 90 c-36 91 -91 239 -141 373 -20 52 -32 72
-45 72 -10 0 -20 -6 -22 -12z"></path>
      <path d="M6225 518 c-71 -150 -148 -315 -171 -365 l-43 -93 35 0 c34 0 36 3
65 67 17 38 44 96 60 131 l29 62 147 0 148 0 57 -128 56 -127 56 -3 c31 -2 56
-1 56 2 0 6 -31 77 -68 156 -16 36 -76 164 -132 285 -56 121 -109 235 -117
253 -31 65 -42 50 -178 -240z m188 -18 l55 -125 -59 -3 c-32 -2 -88 -2 -123 0
l-66 3 13 25 c7 14 34 74 61 133 27 59 52 104 57 100 4 -4 32 -64 62 -133z"></path>
    </g>
  </symbol>
</svg>