<svg width="0" height="0" class="hidden">
  <symbol version="1.0" xmlns="http://www.w3.org/2000/svg" viewBox="0 0 991 132" id="logo">
    <path d="M255 13.5c-20 4.5-37.8 22.1-41.9 41.3-3.9 18.7 1.4 37.3 14.7 50.6 22.1 22.3 56.3 22.3 78.8.1C321 91.4 326 73.1 321 53.4c-4.7-18.3-19.5-33.4-38-38.8-8-2.4-20.3-2.8-28-1.1zm26.7 9.4c5.8 2.6 14.4 10.9 18.5 18.1 8.2 14.2 8.6 35.6.9 50.8-3.8 7.6-12 16.1-18.6 19.2-7.3 3.5-19.9 4-27.7 1-6.7-2.5-15.6-10.1-19.3-16.5-14.2-24.1-6.9-59.2 14.6-70.9 7.1-3.9 10.1-4.6 18.9-4.2 5 .2 9.2 1 12.7 2.5zM387.1 13.6c-20 4.3-36.2 20.2-41.1 40.4-1.7 6.9-1.7 19.9 0 27 3.9 16.9 17.1 31.8 33.5 38 16.8 6.3 39 2 52.9-10.3l4.8-4.2-2.7-2.5c-1.7-1.6-2.8-2.1-3.3-1.4-1.6 2.6-14.1 9.6-20.5 11.6-8.5 2.5-18.8 2.2-25.9-1-10.5-4.6-20.1-17.6-22.8-30.9-1.8-8.2-.8-25.3 1.8-32.6 2.8-7.6 9.5-17 15.1-21.1 13.3-9.8 31.1-8.4 44.3 3.3l4.6 4.1 3.8-4.5c3.6-4.4 3.6-4.6 1.8-6-4.5-3.5-16.5-8.5-23.6-10-9.2-1.8-14.2-1.8-22.7.1zM18.8 13.8l-3.8.3V121h15V76.3l16.4-.5c16.1-.4 16.6-.5 23-3.7 12.4-6.1 18.3-16 17.4-29.5C86 31 80 22.1 69.3 16.9c-4.5-2.2-6.3-2.4-25.8-2.9-11.6-.3-22.7-.4-24.7-.2zm37 8.7c8.9 2.7 14.1 9.7 15 20.1.6 7.5-1.7 15-5.6 18.6-5.6 5.3-8.8 6.2-22.4 6.6l-12.8.4V21h10.3c6.3 0 12.3.6 15.5 1.5zM469.3 13.8l-2.3.3V121h16V67.5c0-29.4-.3-53.5-.7-53.6-3.9-.3-11.2-.3-13-.1zM598.1 13.9c-1.2.8-1.3 6.9-.7 40.1.5 29 .4 39-.4 38.5-.6-.4-6.8-7.1-13.8-14.9-17.3-19.5-54.4-60.8-55.9-62.4-.6-.6-2.3-1.2-3.7-1.2H521v107h9.3l-.5-40c-.3-22-.2-40 .1-39.9.3 0 11.4 12.2 24.6 27.2 45 50.8 46.8 52.7 49.2 52.7h2.3V67.5c0-52.1-.1-53.5-1.9-53.5-1.1 0-2.5-.2-3.3-.5-.7-.3-1.9-.1-2.7.4zM674.3 13.8 643 14v107h66v-9.2l-25.5.7-25.5.8V69.9l24.5.7 24.5.7v-9.6l-24.5.8-24.5.7V21.3l25.6.5 25.5.5-.3-4.3c-.2-3-.8-4.3-1.8-4.4-.8-.1-15.6 0-32.7.2zM831.3 13.8c-1.3.2-2.3.7-2.3 1.2 0 1-28 76.3-28.5 76.9-.5.5-2.3-3.9-13-32.3-18.4-49-16.7-45.1-19.7-45.4-2.6-.3-2.6-.3-20.2 52.5-9.7 29-17.6 53.1-17.6 53.6 0 .4 2.2.7 4.9.7h5l1.6-5.8c.9-3.1 3.5-11.3 5.7-18.2 2.2-6.9 5.5-17.2 7.3-23 8.6-27.4 9.9-31 10.4-31s7.4 18 23.6 61.7c2.9 7.7 5.6 14.6 5.9 15.2 1.1 1.7 4.3 1.3 5.1-.7.4-.9 5.6-15.2 11.7-31.7 6-16.5 12.2-33.3 13.6-37.3 1.5-3.9 2.9-7.2 3.3-7.2.3 0 1.9 4.4 3.7 9.7 4.7 15.1 16.8 53 19.3 61l2.3 7.3h8.3c4.6 0 8.3-.4 8.3-.8 0-1.6-35-105.6-35.7-106.2-.5-.3-1.8-.4-3-.2zM116 67.5V121h15V20.8l12.8.4c14.5.5 18.5 1.8 24.5 7.6 8.7 8.5 8.5 25.6-.5 33.9-5.2 4.9-10.4 6.3-23.6 6.3h-12.3l10.3 11.4c5.7 6.2 16.4 17.9 23.8 26l13.5 14.6H199.2l-11.3-12.2c-6.3-6.7-15.9-16.9-21.4-22.7l-10-10.5 6.6-1.2c14.2-2.6 24.3-11.5 27.1-23.7 3.3-14.4-6.9-29.7-23.1-34.7-5.5-1.7-9.2-2-28.7-2H116v53.5zM916.5 48.3c-8.7 18.8-18.2 39.1-21.1 45.2-7.7 16.3-12.4 26.7-12.4 27.2 0 .2 2.3.3 5 .1l5.1-.3 8.3-18.5 8.4-18.5 21.9-.3 21.8-.2 8.5 19 8.5 19h8.3c4.5 0 8.2-.2 8.2-.5 0-.2-5.6-12.5-12.4-27.2-13.3-28.8-32.8-70.7-35.3-76.1-1.2-2.4-2.2-3.2-4.2-3.2-2.4 0-3.5 2-18.6 34.3zm18.7-6c1.5 3.4 5.2 11.7 8.3 18.4 3 6.7 5.5 12.7 5.5 13.3 0 .6-6.1 1-17.6 1h-17.5l.7-2.3c.4-1.2 2.9-6.9 5.5-12.6 2.7-5.7 4.9-10.4 4.9-10.6 0-1.1 6.2-13.5 6.8-13.5.4 0 1.9 2.9 3.4 6.3z"></path>
    <path d="M392.5 38.4c-4.6 2.1-13.5 10.3-13.5 12.4 0 1 26.9 6.7 27.6 5.9.3-.2-1-5-2.8-10.6-2.2-7.2-3.6-10.1-4.7-10.1-.9 0-3.8 1.1-6.6 2.4zM403.5 38.7c1.3 5.5 8.7 28.5 9 28.1.1-.1 3.1-4 6.4-8.6l6.2-8.3-2.1-3c-2.9-4-7.8-7.6-12.9-9.4-6.4-2.2-7.4-2-6.6 1.2zM423.5 54.8c-8.1 10.8-15.6 21.5-15.2 21.9.5.4 9.1 2.5 15.4 3.6 3 .6 3.3.4 4.3-3.1 1.9-7 .8-23-1.8-24.6-.4-.2-1.6.8-2.7 2.2zM376 59.1c-1.4 5.8-.9 14.8 1.2 19.8l1.4 3.4 9.2-12.3c5-6.8 9.1-12.5 8.9-12.6-.6-.6-14.8-3.4-17.2-3.4-1.9 0-2.5.8-3.5 5.1zM385.7 75.7c-3.1 4.2-5.7 8.3-5.7 9 0 2.1 7.8 9.3 12.3 11.4 4 1.8 9.7 2.6 9.7 1.3 0-1.7-9.3-29.4-9.9-29.4-.4 0-3.3 3.5-6.4 7.7zM400.6 87.4c4 12 4.1 12 12.2 8 5-2.5 12.2-9.5 12.2-11.9 0-.8-4.6-2.1-11.7-3.5-6.5-1.2-12.8-2.4-14-2.7-2.2-.5-2.2-.3 1.3 10.1z"></path>
  </symbol>
</svg>