<?xml version="1.0" standalone="no"?>
<!DOCTYPE svg PUBLIC "-//W3C//DTD SVG 20010904//EN"
 "http://www.w3.org/TR/2001/REC-SVG-20010904/DTD/svg10.dtd">
<svg version="1.0" xmlns="http://www.w3.org/2000/svg"
 width="3398.000000pt" height="2070.000000pt" viewBox="0 0 3398.000000 2070.000000"
 preserveAspectRatio="xMidYMid meet">

<g transform="translate(0.000000,2070.000000) scale(0.100000,-0.100000)"
fill="#000000" stroke="none">
<path d="M13720 13679 c-1152 -1996 -2096 -3634 -2098 -3639 -2 -6 65 -10 175
-10 l178 0 100 176 c55 97 105 178 112 181 7 3 136 -66 287 -154 232 -134 273
-161 265 -175 -5 -9 -9 -19 -9 -22 0 -3 779 -6 1730 -6 952 0 1730 3 1730 8 0
24 -65 377 -91 492 -127 574 -340 1085 -612 1470 -62 88 -220 284 -237 295 -5
3 12 -29 39 -72 26 -43 90 -154 141 -248 260 -473 434 -947 509 -1386 24 -141
47 -376 38 -386 -4 -3 -55 4 -113 16 -589 123 -967 496 -1083 1069 -45 219
-53 409 -37 847 7 206 6 253 -8 335 -21 117 -66 255 -112 339 -19 35 -33 65
-31 68 7 6 351 -46 477 -73 668 -143 1118 -430 1315 -838 54 -112 77 -181 106
-316 32 -150 33 -447 1 -635 -28 -160 -82 -374 -133 -522 -22 -62 -39 -123
-38 -135 0 -13 15 -90 33 -173 l32 -150 106 -3 106 -3 158 168 c188 199 284
306 420 468 842 1003 1392 2109 1653 3322 22 105 41 197 41 205 0 7 -29 -70
-64 -172 -438 -1279 -1086 -2373 -1912 -3230 l-112 -115 23 100 c60 267 80
574 51 791 -38 293 -129 527 -293 756 -60 85 -231 264 -318 335 l-50 41 13 47
c66 246 240 575 439 830 245 313 500 540 1193 1061 441 331 623 493 763 679
65 87 141 224 152 275 5 24 -41 52 -1037 627 -574 331 -1049 603 -1056 605 -8
2 -63 -81 -141 -217 -71 -122 -134 -219 -141 -217 -13 3 -529 300 -543 312 -7
6 172 331 240 436 12 19 6 24 -120 97 -74 42 -136 77 -138 77 -2 -1 -947
-1634 -2099 -3631z m2290 2686 c151 -87 276 -159 277 -159 3 -2 -377 -659
-386 -668 -6 -7 -531 289 -554 312 -9 8 373 680 383 675 3 -1 129 -73 280
-160z m-490 -885 c135 -78 249 -145 253 -149 8 -8 -366 -664 -382 -669 -7 -2
-521 286 -559 313 -2 2 338 595 374 653 18 27 -13 41 314 -148z m-524 -865
c148 -85 270 -159 272 -165 3 -8 -359 -643 -377 -663 -9 -9 -560 302 -561 316
0 5 77 142 171 305 210 364 209 362 219 362 4 0 129 -70 276 -155z m-476 -892
c129 -75 238 -139 243 -142 6 -6 -360 -654 -380 -671 -6 -5 -257 135 -551 309
-10 5 34 89 168 322 100 173 188 324 196 337 l15 23 37 -22 c20 -12 143 -82
272 -156z m-533 -860 c150 -87 273 -162 273 -166 0 -8 -367 -647 -380 -661 -9
-9 -560 303 -560 318 0 5 61 115 136 245 215 370 245 421 251 421 4 0 129 -71
280 -157z m-452 -908 c121 -70 221 -128 222 -129 3 -3 -374 -657 -384 -667 -6
-6 -536 291 -558 312 -4 5 312 565 371 656 l14 22 58 -33 c31 -18 156 -91 277
-161z m-556 -845 c148 -85 270 -158 271 -162 0 -13 -381 -668 -390 -668 -14 0
-545 310 -548 320 -2 6 67 133 153 283 209 362 226 388 235 385 5 -2 130 -73
279 -158z"/>
<path d="M19258 15272 c465 -691 702 -1478 679 -2257 -20 -668 -208 -1233
-574 -1724 -159 -212 -440 -471 -667 -615 -371 -235 -826 -388 -1301 -437
l-120 -12 -83 -96 -82 -96 554 -3 c305 -1 808 -1 1118 0 l563 3 -137 78 c-75
43 -144 84 -153 91 -15 11 1 43 167 332 102 175 189 327 194 337 9 15 40 -1
279 -139 149 -86 276 -159 282 -163 9 -5 -32 -85 -141 -274 l-154 -267 181 2
181 3 1047 1814 1048 1815 -132 76 c-73 43 -135 75 -139 71 -3 -3 -61 -100
-128 -216 -67 -115 -125 -214 -129 -218 -8 -8 -518 279 -549 308 -11 10 9 52
114 234 75 130 124 225 118 230 -5 5 -463 271 -1019 591 -555 320 -1025 592
-1044 603 -33 20 -32 18 27 -71z m1979 -1925 c144 -83 263 -155 263 -160 0 -9
-367 -647 -380 -661 -9 -9 -559 303 -560 318 0 5 61 115 136 245 248 428 245
423 262 416 8 -3 134 -74 279 -158z m-512 -872 c132 -76 248 -143 257 -150 16
-10 -1 -44 -172 -340 -104 -180 -192 -331 -197 -335 -6 -6 -538 292 -559 313
-4 4 323 579 372 655 14 21 17 22 37 9 12 -8 130 -76 262 -152z m-506 -875
c149 -85 271 -158 271 -162 0 -5 -86 -157 -191 -339 -152 -261 -195 -329 -208
-324 -38 15 -541 310 -541 318 0 8 255 456 347 610 19 32 39 57 44 55 4 -2
130 -73 278 -158z"/>
<path d="M12258 9185 c-406 -64 -765 -383 -868 -770 -80 -305 -28 -638 140
-885 99 -146 271 -296 424 -370 283 -136 641 -144 938 -21 211 88 421 286 532
501 86 167 111 281 110 495 -1 139 -4 173 -28 260 -77 292 -289 551 -566 690
-202 102 -443 137 -682 100z m337 -160 c298 -62 552 -371 605 -734 17 -115 7
-331 -20 -440 -50 -203 -191 -415 -347 -522 -196 -135 -460 -157 -675 -56 -87
41 -122 67 -206 150 -115 113 -193 252 -240 427 -22 84 -25 115 -26 270 0 148
3 188 22 263 47 187 137 344 271 469 91 86 207 150 312 173 85 18 217 18 304
0z"/>
<path d="M14856 9189 c-338 -49 -641 -275 -797 -594 -161 -330 -137 -766 60
-1066 266 -405 759 -577 1210 -422 147 50 330 161 418 255 l33 34 -50 49 -50
49 -27 -22 c-16 -12 -72 -51 -125 -88 -288 -195 -597 -225 -836 -82 -128 78
-269 244 -329 390 -116 283 -109 634 17 897 132 276 347 434 606 448 205 11
363 -52 535 -215 38 -36 71 -63 72 -61 2 2 36 44 76 92 41 50 70 94 67 102 -7
20 -180 119 -270 155 -192 77 -420 107 -610 79z"/>
<path d="M7490 8126 l0 -1056 155 0 155 0 0 440 0 440 244 0 c257 0 358 9 460
40 192 60 356 232 401 421 17 76 20 217 4 291 -6 29 -26 86 -45 127 -47 101
-167 222 -274 275 -143 70 -136 69 -642 73 l-458 4 0 -1055z m751 884 c175
-32 311 -165 348 -338 46 -217 -48 -427 -232 -516 -77 -38 -139 -46 -358 -46
l-199 0 0 455 0 455 194 0 c106 0 218 -4 247 -10z"/>
<path d="M9470 8125 l0 -1055 155 0 155 0 2 507 3 507 465 -507 465 -506 203
0 203 -1 -416 445 c-228 244 -415 446 -415 448 0 2 31 7 69 11 88 8 187 38
276 84 93 49 211 165 254 249 158 315 -2 674 -361 813 -138 54 -208 60 -654
60 l-404 0 0 -1055z m840 867 c214 -70 335 -254 316 -479 -16 -173 -92 -290
-238 -364 -95 -48 -167 -59 -400 -59 l-208 0 0 466 0 466 233 -4 c202 -4 241
-8 297 -26z"/>
<path d="M16370 8125 l0 -1055 155 0 155 0 0 1055 0 1055 -155 0 -155 0 0
-1055z"/>
<path d="M17430 8125 l0 -1055 90 0 90 0 0 98 c0 53 -5 385 -11 737 -6 352 -9
660 -7 684 l3 43 695 -780 695 -780 53 -1 52 -1 0 1055 0 1055 -95 0 -95 0 1
-152 c0 -84 6 -435 12 -781 7 -345 10 -627 7 -627 -3 0 -318 351 -700 779
l-695 780 -47 0 -48 1 0 -1055z"/>
<path d="M19800 8125 l0 -1055 655 0 655 0 0 91 0 91 -267 -6 c-148 -3 -373
-9 -500 -12 l-233 -6 0 414 0 413 480 -3 480 -4 0 86 0 86 -480 0 -480 0 0
401 0 401 233 -6 c127 -3 352 -9 500 -12 l267 -6 0 91 0 91 -655 0 -655 0 0
-1055z"/>
<path d="M21864 8138 c-191 -574 -349 -1049 -352 -1055 -3 -10 21 -13 102 -13
l105 0 45 143 c25 78 134 424 243 769 108 345 199 626 201 624 2 -2 133 -348
291 -767 l287 -764 48 0 49 0 280 767 c155 423 284 763 287 758 4 -6 114 -352
246 -770 l239 -760 173 0 c94 0 172 3 172 8 0 4 -157 477 -348 1052 l-349
1045 -53 0 -54 0 -285 -767 c-157 -422 -288 -764 -292 -760 -4 4 -137 350
-295 769 l-289 763 -52 0 -51 0 -348 -1042z"/>
<path d="M25487 9153 c-15 -28 -881 -1876 -943 -2010 l-33 -73 108 0 108 0
165 368 165 367 424 2 424 3 164 -366 c91 -201 170 -368 176 -370 6 -3 83 -3
172 -2 l161 3 -487 1050 -488 1050 -51 3 c-47 3 -52 1 -65 -25z m170 -795
l172 -383 -346 -3 c-190 -1 -348 -1 -350 1 -4 5 340 767 347 767 3 0 82 -172
177 -382z"/>
<path d="M17947 6312 c-20 -22 -22 -63 -5 -80 7 -7 27 -12 45 -12 26 0 36 6
45 26 26 56 -45 110 -85 66z"/>
<path d="M20853 6320 c-106 -22 -196 -87 -239 -172 -18 -36 -24 -63 -24 -114
0 -143 85 -211 345 -274 230 -56 325 -142 313 -286 -14 -170 -246 -283 -435
-212 -77 28 -157 104 -181 170 -16 46 -18 48 -47 42 -40 -8 -40 -8 -26 -53 29
-99 161 -192 299 -211 261 -36 477 121 459 336 -11 147 -100 219 -352 284
-221 57 -288 103 -308 207 -10 50 17 123 60 165 59 56 117 81 204 86 67 4 84
1 132 -21 65 -30 140 -95 158 -138 11 -28 15 -31 47 -25 19 3 37 7 39 10 9 9
-46 93 -79 122 -63 53 -148 84 -239 89 -46 2 -103 0 -126 -5z"/>
<path d="M23967 6312 c-35 -39 -13 -92 38 -92 52 0 75 59 37 93 -24 22 -55 21
-75 -1z"/>
<path d="M8790 5765 l0 -545 35 0 35 0 0 240 0 240 149 0 c172 0 233 9 316 49
116 55 168 135 169 256 0 39 -6 87 -13 109 -28 80 -120 151 -236 182 -34 9
-115 14 -252 14 l-203 0 0 -545z m445 491 c111 -34 179 -129 179 -251 0 -89
-30 -156 -92 -202 -68 -51 -124 -63 -304 -63 l-158 0 0 263 c0 145 3 267 8
272 12 13 312 -2 367 -19z"/>
<path d="M12350 5766 l0 -546 40 0 40 0 0 240 0 240 144 0 c168 0 228 10 315
51 85 39 136 93 157 166 37 126 -4 254 -100 316 -103 68 -118 71 -368 75
l-228 4 0 -546z m460 485 c60 -22 115 -72 146 -131 28 -52 26 -181 -3 -235
-28 -53 -68 -89 -128 -117 -45 -21 -68 -23 -222 -26 l-173 -4 0 273 0 272 163
-6 c131 -4 173 -9 217 -26z"/>
<path d="M15320 6068 l0 -242 -49 55 c-60 67 -127 105 -212 118 -211 34 -387
-103 -418 -324 -28 -192 59 -372 211 -440 53 -24 76 -28 150 -28 78 0 94 3
152 32 44 21 82 50 116 88 l50 57 0 -82 0 -82 35 0 35 0 0 545 0 545 -35 0
-35 0 0 -242z m-186 -117 c200 -88 250 -449 87 -624 -145 -155 -381 -108 -470
94 -64 145 -44 332 49 449 80 101 215 134 334 81z"/>
<path d="M23610 6068 l0 -242 -50 57 c-34 38 -72 67 -115 88 -57 28 -74 31
-154 32 -81 0 -96 -3 -155 -32 -75 -37 -132 -96 -173 -180 -26 -52 -28 -64
-28 -186 0 -122 2 -134 28 -186 41 -84 98 -143 173 -180 59 -29 74 -32 154
-32 80 0 95 3 154 32 44 21 82 50 116 88 l50 57 0 -82 0 -82 35 0 35 0 0 545
0 545 -35 0 -35 0 0 -242z m-172 -124 c193 -94 232 -463 67 -629 -53 -52 -115
-77 -195 -79 -267 -5 -403 367 -228 622 79 115 225 150 356 86z"/>
<path d="M11400 6125 l0 -135 -90 0 c-73 0 -90 -3 -90 -15 0 -12 17 -15 89
-15 l89 0 5 -337 c2 -186 8 -351 14 -368 8 -26 15 -30 50 -33 l41 -3 -16 48
c-13 40 -16 104 -16 368 l-1 320 123 3 c99 2 122 5 122 17 0 12 -22 15 -125
15 l-125 0 0 135 0 135 -35 0 -35 0 0 -135z"/>
<path d="M17460 6125 l0 -135 -90 0 c-73 0 -90 -3 -90 -15 0 -12 17 -15 90
-15 l90 0 0 -307 c0 -178 5 -333 11 -370 l11 -63 44 0 43 0 -17 38 c-14 32
-17 84 -20 370 l-3 332 125 0 c105 0 126 2 126 15 0 13 -21 15 -125 15 l-125
0 0 135 0 135 -35 0 -35 0 0 -135z"/>
<path d="M21590 6125 l0 -135 -90 0 c-73 0 -90 -3 -90 -15 0 -12 17 -15 89
-15 l89 0 5 -337 c2 -186 8 -351 14 -368 8 -26 15 -30 51 -33 l42 -3 -17 43
c-15 37 -17 89 -17 368 l-1 325 123 3 c99 2 122 5 122 17 0 12 -22 15 -125 15
l-125 0 0 135 0 135 -35 0 -35 0 0 -135z"/>
<path d="M9900 5996 c-108 -23 -207 -105 -258 -214 -25 -52 -27 -68 -27 -177
0 -109 2 -125 27 -177 75 -160 238 -246 414 -218 129 21 230 97 287 218 30 63
32 74 32 177 0 103 -2 114 -32 177 -56 118 -152 195 -272 218 -66 12 -100 12
-171 -4z m216 -47 c58 -29 119 -97 152 -169 37 -79 43 -222 13 -312 -58 -172
-213 -268 -364 -224 -151 44 -260 247 -229 425 43 240 243 372 428 280z"/>
<path d="M10753 6000 c-127 -27 -203 -105 -203 -209 0 -94 72 -145 280 -201
187 -51 245 -98 237 -193 -3 -38 -11 -56 -38 -84 -118 -124 -359 -99 -431 44
-23 47 -25 49 -56 41 l-32 -9 20 -38 c46 -91 153 -143 295 -143 193 -1 315 87
315 226 0 122 -56 167 -283 225 -179 46 -226 77 -234 153 -10 92 83 163 212
163 85 -1 135 -24 193 -90 22 -25 46 -45 53 -45 82 1 0 108 -113 147 -54 18
-160 25 -215 13z"/>
<path d="M13577 5999 c-63 -15 -138 -59 -189 -111 l-48 -49 0 75 0 76 -35 0
-35 0 0 -385 0 -385 35 0 35 0 0 259 c0 279 5 311 55 377 34 44 117 83 183 85
l52 2 0 34 c0 18 -3 33 -7 32 -5 -1 -25 -5 -46 -10z"/>
<path d="M14020 6000 c-113 -24 -212 -105 -266 -218 -37 -76 -46 -221 -19
-307 36 -112 135 -217 240 -252 31 -10 82 -16 137 -16 81 0 93 3 162 37 85 42
141 98 183 185 26 52 28 65 28 176 0 112 -2 124 -29 180 -40 82 -128 167 -200
194 -66 25 -172 34 -236 21z m167 -35 c148 -44 254 -245 223 -425 -40 -241
-242 -370 -430 -275 -214 109 -248 469 -59 639 79 71 166 91 266 61z"/>
<path d="M16830 5996 c-160 -35 -275 -159 -300 -322 -52 -334 265 -572 565
-425 64 32 113 75 97 85 -5 3 -20 -3 -33 -13 -74 -58 -212 -99 -287 -85 -62
11 -119 43 -167 95 -102 109 -131 282 -74 434 25 68 103 155 164 184 102 48
230 34 319 -34 l45 -34 21 26 21 27 -47 24 c-92 47 -218 62 -324 38z"/>
<path d="M18534 5997 c-194 -50 -318 -251 -284 -461 35 -220 227 -361 446
-326 129 21 225 94 286 218 31 63 33 72 33 177 0 103 -2 114 -32 177 -62 132
-181 213 -323 223 -45 3 -95 -1 -126 -8z m166 -27 c223 -62 316 -393 171 -604
-54 -78 -156 -136 -241 -136 -59 0 -129 30 -182 79 -65 60 -103 133 -119 231
-43 256 159 489 371 430z"/>
<path d="M19509 5997 c-66 -19 -132 -60 -173 -109 l-36 -43 0 73 0 72 -35 0
-35 0 0 -385 0 -385 35 0 35 0 0 263 c0 303 5 333 75 402 98 98 280 100 376 4
62 -62 69 -102 69 -406 l0 -263 36 0 35 0 -3 298 -3 297 -29 53 c-31 55 -74
94 -130 117 -50 21 -163 27 -217 12z"/>
<path d="M24560 5997 c-109 -25 -207 -106 -258 -215 -25 -52 -27 -68 -27 -177
0 -109 2 -125 27 -177 75 -160 238 -246 414 -218 130 21 230 97 287 218 40 86
50 218 22 307 -35 110 -134 216 -235 250 -62 21 -165 27 -230 12z m180 -33
c104 -31 200 -159 218 -292 46 -333 -264 -567 -487 -366 -168 151 -168 447 0
598 79 71 166 91 269 60z"/>
<path d="M15650 5748 c0 -257 9 -347 39 -407 47 -89 134 -135 261 -136 73 0
93 4 142 28 34 17 77 50 107 83 l51 56 0 -76 0 -76 35 0 35 0 0 385 0 385 -35
0 -35 0 0 -253 c0 -308 -6 -336 -84 -413 -62 -60 -117 -79 -209 -72 -105 9
-180 61 -213 148 -14 37 -18 93 -22 318 l-4 272 -34 0 -34 0 0 -242z"/>
<path d="M17950 5605 l0 -385 35 0 35 0 0 385 0 385 -35 0 -35 0 0 -385z"/>
<path d="M22060 5705 c0 -262 2 -289 20 -339 24 -62 69 -108 139 -140 66 -29
197 -29 264 2 56 25 99 59 139 109 l28 36 0 -77 0 -76 35 0 35 0 0 385 0 385
-34 0 -35 0 -3 -277 c-3 -312 -3 -309 -81 -390 -53 -56 -116 -77 -206 -71
-101 8 -164 46 -207 128 -17 31 -19 65 -22 323 l-3 287 -35 0 -34 0 0 -285z"/>
<path d="M23970 5605 l0 -385 35 0 35 0 0 385 0 385 -35 0 -35 0 0 -385z"/>
</g>
</svg>
